<svg xmlns="http://www.w3.org/2000/svg" width="35.567" height="29.528" viewBox="0 0 35.567 29.528">
  <g id="brochure-2" transform="translate(0)">
    <path id="Контур_63" data-name="Контур 63" d="M40.99,148.883a1.733,1.733,0,0,0-1.731,1.731v.266H37.965a.521.521,0,0,0-.52.489L37,158.58a.521.521,0,0,0,.52.553h6.947a.521.521,0,0,0,.52-.553l-.448-7.212a.521.521,0,0,0-.52-.489h-1.3v-.266a1.733,1.733,0,0,0-1.731-1.73Zm-.689,1.731a.689.689,0,0,1,1.377,0v.266H40.3Zm3.224,1.308.383,6.17H38.071l.383-6.17h.805v.715a.521.521,0,0,0,1.042,0v-.715h1.377v.715a.521.521,0,0,0,1.042,0v-.715Z" transform="translate(-34.426 -141.562)" fill="#6e6eaf"/>
    <path id="Контур_64" data-name="Контур 64" d="M379.651,331.961a.521.521,0,0,0,.164-1.016l-6.3-2.084a.521.521,0,1,0-.327.989l6.3,2.084a.521.521,0,0,0,.163.027Z" transform="translate(-346.932 -309.013)" fill="#6e6eaf"/>
    <path id="Контур_65" data-name="Контур 65" d="M37.517,329.88h6.839a.521.521,0,1,0,0-1.042H37.517a.521.521,0,1,0,0,1.042Z" transform="translate(-34.426 -309.016)" fill="#6e6eaf"/>
    <path id="Контур_66" data-name="Контур 66" d="M37.517,377.282h6.839a.521.521,0,1,0,0-1.042H37.517a.521.521,0,1,0,0,1.042Z" transform="translate(-34.426 -353.125)" fill="#6e6eaf"/>
    <path id="Контур_67" data-name="Контур 67" d="M215.111,210.957a.163.163,0,0,1-.076.079l-1.313.543a1.183,1.183,0,0,0-.719.944.882.882,0,0,0,.357.835l.861.609-.213,1.3a.867.867,0,0,0,.856,1.048,1.076,1.076,0,0,0,.664-.242l1.175-.932.018-.012,1.141.294a1.041,1.041,0,0,0,.962-.274,1.123,1.123,0,0,0,.363-1l-.222-1.235a.141.141,0,0,1,.026-.047l.95-1.181a1.035,1.035,0,0,0,.144-1.149.857.857,0,0,0-.874-.428l-1.213.149-.525-.923a.851.851,0,0,0-.8-.428,1.152,1.152,0,0,0-.973.7Zm.955.416.587-1.347.006-.013.494.869a.859.859,0,0,0,.871.422l.983-.121-.828,1.029a1.092,1.092,0,0,0-.242.872l.222,1.237a.184.184,0,0,1-.071.084l-1.142-.294a1.037,1.037,0,0,0-.892.214l-.962.764.167-1.02a.9.9,0,0,0-.349-.89l-.844-.6a.136.136,0,0,1,.052-.041l1.313-.543a1.2,1.2,0,0,0,.635-.621Z" transform="translate(-198.2 -197.414)" fill="#6e6eaf"/>
    <path id="Контур_68" data-name="Контур 68" d="M35.2,47,24.079,43.532a.528.528,0,0,0-.344,0l-4.413,1.376a.521.521,0,1,0,.31.995l3.757-1.171v9.491a.515.515,0,0,0,0,.064V68.649L13.293,71.8V47.881l4.067-1.268a.521.521,0,1,0-.31-.995l-4.358,1.359H.521A.521.521,0,0,0,0,47.5V65.74a.521.521,0,1,0,1.042,0V48.019H12.251V71.985H1.042V68.01A.521.521,0,1,0,0,68.01v4.5a.521.521,0,0,0,.521.521H12.772A.542.542,0,0,0,12.929,73l10.98-3.425,4.278,1.334a.521.521,0,1,0,.31-1l-4.066-1.268V55.308l10.094,7.661V71.8l-3.757-1.172a.521.521,0,1,0-.31,1L34.891,73a.521.521,0,0,0,.676-.5v-25A.521.521,0,0,0,35.2,47ZM24.43,54V44.733l10.094,3.148v13.78Z" transform="translate(0 -43.503)" fill="#6e6eaf"/>
  </g>
</svg>
