<svg id="call" xmlns="http://www.w3.org/2000/svg" width="13.487" height="13.487" viewBox="0 0 13.487 13.487">
  <g id="Сгруппировать_6" data-name="Сгруппировать 6">
    <path id="Контур_4" data-name="Контур 4" d="M12.4,8.853A7.657,7.657,0,0,1,10,8.47a1.1,1.1,0,0,0-1.069.225L7.414,9.84A8.381,8.381,0,0,1,3.646,6.073L4.758,4.6a1.09,1.09,0,0,0,.268-1.1,7.669,7.669,0,0,1-.385-2.409A1.083,1.083,0,0,0,3.559,0H1.082A1.083,1.083,0,0,0,0,1.082a12.419,12.419,0,0,0,12.4,12.4A1.083,1.083,0,0,0,13.487,12.4V9.935A1.084,1.084,0,0,0,12.4,8.853Z" fill="#3157be"/>
  </g>
</svg>
