<svg xmlns="http://www.w3.org/2000/svg" width="38.304" height="38.317" viewBox="0 0 38.304 38.317">
  <g id="outline" transform="translate(0)">
    <path id="Контур_43" data-name="Контур 43" d="M409.916,16a1.916,1.916,0,1,0,1.916,1.916A1.916,1.916,0,0,0,409.916,16Zm0,2.554a.639.639,0,1,1,.639-.639.639.639,0,0,1-.639.639Z" transform="translate(-376.709 -16)" fill="#6e6eaf"/>
    <path id="Контур_44" data-name="Контур 44" d="M456.638,66.554a.637.637,0,0,0,.452-.187l1.277-1.277a.639.639,0,0,0-.9-.9l-1.277,1.277a.639.639,0,0,0,.452,1.09Z" transform="translate(-420.877 -60.168)" fill="#6e6eaf"/>
    <path id="Контур_45" data-name="Контур 45" d="M96.187,112.187a.639.639,0,0,0,0,.9l1.277,1.277a.639.639,0,0,0,.9-.9l-1.277-1.277a.639.639,0,0,0-.9,0Z" transform="translate(-89.615 -104.337)" fill="#6e6eaf"/>
    <path id="Контур_46" data-name="Контур 46" d="M50.485,38.365h-3.3a1.916,1.916,0,1,0-3.612,0H33.245l4.7-3.91a1.247,1.247,0,0,0,.437.08,1.272,1.272,0,0,0,.75-.248l2.407-1.749,2.407,1.749A1.276,1.276,0,0,0,45.91,32.86L45,30.03l2.4-1.749a1.276,1.276,0,0,0-.75-2.308H43.677l-.92-2.83h0a1.276,1.276,0,0,0-2.427,0l-.919,2.83H36.435a1.254,1.254,0,0,0-1.164.753.64.64,0,0,0-.078.055l-2.559,2.127a1.914,1.914,0,0,0-2.557,2.125L16.231,42.541a.639.639,0,0,0-.083.9l4.082,4.911a.639.639,0,0,0,.432.228h.059a.638.638,0,0,0,.408-.148l5.727-4.76V59.439a.639.639,0,0,0,.639.639h22.99a.639.639,0,0,0,.639-.639V39A.639.639,0,0,0,50.485,38.365Zm-.639,7.663H42.183V39.642h7.663Zm0,5.109H42.183V47.305h7.663ZM44.737,37.726a.639.639,0,1,1,.639.639A.639.639,0,0,1,44.737,37.726Zm-16.6,9.579H35.8v3.832H28.134ZM39.875,27.25a.639.639,0,0,0,.607-.441l1.062-3.268,1.062,3.268a.639.639,0,0,0,.607.441h3.436l-2.78,2.02a.639.639,0,0,0-.232.714L44.7,33.251l-2.78-2.019a.639.639,0,0,0-.75,0l-2.78,2.02,1.062-3.268a.639.639,0,0,0-.232-.714l-2.78-2.02Zm-7.91,2.813a.639.639,0,1,1-.529,1,.634.634,0,0,0-.083-.175.638.638,0,0,1,.612-.821ZM20.8,47.044l-3.265-3.929L30.722,32.158a1.914,1.914,0,0,0,2.9-2.412l1.913-1.59a1.344,1.344,0,0,0,.148.125L38.09,30.03l-.92,2.83a1.287,1.287,0,0,0-.046.618Zm10.9-7.4h4.1V46.03H28.134V42.613Zm-3.566,12.77H35.8V58.8H28.134Zm8.94,6.386V39.642h3.832V58.8Zm5.109,0V52.414h7.663V58.8Z" transform="translate(-16.001 -21.761)" fill="#6e6eaf"/>
    <path id="Контур_47" data-name="Контур 47" d="M427.006,112.709a.639.639,0,0,0-.9-.046l-1.9,1.713a.639.639,0,0,0-.046.9l2.565,2.838a.639.639,0,0,0,.9.046l1.9-1.713a.639.639,0,0,0,.046-.9Zm.241,4.077-1.708-1.89.948-.856,1.708,1.89Z" transform="translate(-391.431 -104.796)" fill="#6e6eaf"/>
    <path id="Контур_48" data-name="Контур 48" d="M146.454,24.027l-2.942,2.445a.639.639,0,0,0-.083.9l1.633,1.964a.639.639,0,0,0,.9.083l2.941-2.445a.639.639,0,0,0,.083-.9l-1.633-1.964A.639.639,0,0,0,146.454,24.027Zm-.818,4-.816-.982,1.959-1.628.816.982Z" transform="translate(-133.123 -23.25)" fill="#6e6eaf"/>
    <path id="Контур_49" data-name="Контур 49" d="M288.187,184.187a.639.639,0,0,0,0,.9l.639.639a.639.639,0,1,0,.9-.9l-.639-.639a.639.639,0,0,0-.9,0Z" transform="translate(-266.288 -170.589)" fill="#6e6eaf"/>
    <path id="Контур_50" data-name="Контур 50" d="M264.825,25.729a.639.639,0,0,0,.9-.9l-.639-.639a.639.639,0,0,0-.9.9Z" transform="translate(-244.204 -23.361)" fill="#6e6eaf"/>
  </g>
</svg>
