<svg xmlns="http://www.w3.org/2000/svg" width="30.132" height="27.78" viewBox="0 0 30.132 27.78">
  <g id="offset" transform="translate(0)">
    <g id="Сгруппировать_167" data-name="Сгруппировать 167" transform="translate(0)">
      <g id="Сгруппировать_166" data-name="Сгруппировать 166">
        <path id="Контур_69" data-name="Контур 69" d="M27.707,30.946a4.638,4.638,0,0,0,1.208-1.171,7.215,7.215,0,0,0,0-8.016A3.893,3.893,0,0,0,25.776,20H4.355a3.893,3.893,0,0,0-3.139,1.759,7.215,7.215,0,0,0,0,8.016,4.637,4.637,0,0,0,1.208,1.171,4.638,4.638,0,0,0-1.208,1.171,7.215,7.215,0,0,0,0,8.016,3.893,3.893,0,0,0,3.139,1.759H7.533v5.3a.588.588,0,0,0,.588.588h6.13a.589.589,0,1,0,0-1.177H8.71V36.125a6.842,6.842,0,0,0-1.216-4.008A5.11,5.11,0,0,0,7,31.534H25.776a2.753,2.753,0,0,1,2.187,1.274,5.661,5.661,0,0,1,.991,3.316V46.6h-8.93a.589.589,0,0,0,0,1.177h9.519a.588.588,0,0,0,.588-.588V36.125a6.842,6.842,0,0,0-1.216-4.008,4.637,4.637,0,0,0-1.208-1.171ZM7.533,40.715H7a5.1,5.1,0,0,0,.492-.582l.039-.056Zm0-4.59a5.661,5.661,0,0,1-.991,3.316,2.753,2.753,0,0,1-2.187,1.274A2.753,2.753,0,0,1,2.168,39.44a6.045,6.045,0,0,1,0-6.632,2.753,2.753,0,0,1,2.187-1.274,2.753,2.753,0,0,1,2.187,1.274A5.661,5.661,0,0,1,7.533,36.125Zm-.991-7.042a2.753,2.753,0,0,1-2.187,1.274,2.753,2.753,0,0,1-2.187-1.274,6.045,6.045,0,0,1,0-6.632,2.753,2.753,0,0,1,2.187-1.274,2.753,2.753,0,0,1,2.187,1.274,6.045,6.045,0,0,1,0,6.632Zm19.234,1.274H7a5.1,5.1,0,0,0,.492-.582,7.215,7.215,0,0,0,0-8.016A5.11,5.11,0,0,0,7,21.177H25.776a2.753,2.753,0,0,1,2.187,1.274,6.045,6.045,0,0,1,0,6.632,2.753,2.753,0,0,1-2.187,1.274Z" transform="translate(0 -20)" fill="#6e6eaf"/>
      </g>
    </g>
    <g id="Сгруппировать_169" data-name="Сгруппировать 169" transform="translate(16.37 26.6)">
      <g id="Сгруппировать_168" data-name="Сгруппировать 168">
        <path id="Контур_70" data-name="Контур 70" d="M279.175,472.172a.588.588,0,1,0,.172.416.588.588,0,0,0-.172-.416Z" transform="translate(-278.171 -472)" fill="#6e6eaf"/>
      </g>
    </g>
    <g id="Сгруппировать_171" data-name="Сгруппировать 171" transform="translate(3.761 15.536)">
      <g id="Сгруппировать_170" data-name="Сгруппировать 170">
        <path id="Контур_71" data-name="Контур 71" d="M65,284.172a.588.588,0,1,0,.172.416A.588.588,0,0,0,65,284.172Z" transform="translate(-63.996 -284)" fill="#6e6eaf"/>
      </g>
    </g>
    <g id="Сгруппировать_173" data-name="Сгруппировать 173" transform="translate(3.761 5.179)">
      <g id="Сгруппировать_172" data-name="Сгруппировать 172">
        <path id="Контур_72" data-name="Контур 72" d="M65,108.172a.588.588,0,1,0,.172.416.588.588,0,0,0-.172-.416Z" transform="translate(-63.996 -108)" fill="#6e6eaf"/>
      </g>
    </g>
    <g id="Сгруппировать_175" data-name="Сгруппировать 175" transform="translate(17.124 2.472)">
      <g id="Сгруппировать_174" data-name="Сгруппировать 174">
        <path id="Контур_73" data-name="Контур 73" d="M296.208,62h-4.62a.589.589,0,0,0,0,1.177h4.62a.589.589,0,0,0,0-1.177Z" transform="translate(-291 -62)" fill="#6e6eaf"/>
      </g>
    </g>
    <g id="Сгруппировать_177" data-name="Сгруппировать 177" transform="translate(14.485 2.472)">
      <g id="Сгруппировать_176" data-name="Сгруппировать 176">
        <path id="Контур_74" data-name="Контур 74" d="M247.135,62.172a.588.588,0,1,0,.172.416.588.588,0,0,0-.172-.416Z" transform="translate(-246.131 -62)" fill="#6e6eaf"/>
      </g>
    </g>
  </g>
</svg>
