<svg xmlns="http://www.w3.org/2000/svg" width="28.887" height="29.702" viewBox="0 0 28.887 29.702">
  <g id="paint-palette" transform="translate(0)">
    <g id="Сгруппировать_165" data-name="Сгруппировать 165" transform="translate(0)">
      <g id="Сгруппировать_164" data-name="Сгруппировать 164">
        <path id="Контур_51" data-name="Контур 51" d="M48.6,59.288a.578.578,0,0,0,.4-.159c2.8-2.656,5.15-4.961,7.851-7.9a3.181,3.181,0,0,0,.477.075h.046a.58.58,0,0,0,.453-.218c.536-.673,1.108-1.4,1.712-2.171L60.1,48.2a3.054,3.054,0,0,0,2.274-1.063,2.686,2.686,0,0,0,.531-1.354,4.977,4.977,0,0,1,1.851-3.7.58.58,0,0,0-.289-1.077h-.053c-.7,0-4.3.114-5.992,2.371a4.265,4.265,0,0,0-.836,2.283l-.731.574c-.77.6-1.5,1.175-2.169,1.711a.58.58,0,0,0-.217.5,3.173,3.173,0,0,0,.075.477c-2.941,2.7-5.245,5.051-7.9,7.85a.58.58,0,0,0,.011.809l1.533,1.533A.578.578,0,0,0,48.6,59.288Zm14.368-17a7.1,7.1,0,0,0-1.178,3.083l-.409-.09-.1-.479a.58.58,0,0,0-.442-.442l-.478-.105-.1-.479A.579.579,0,0,0,60,43.424a6.642,6.642,0,0,1,2.968-1.131Zm-3.819,2.09.047.01.1.479a.58.58,0,0,0,.442.442l.478.1.1.479a.58.58,0,0,0,.442.442l.478.105.036.163a2.144,2.144,0,0,1-1.252.435l-1.289-1.289a3.219,3.219,0,0,1,.408-1.361Zm-1.577,2.769.519-.408.94.94-.406.518c-.526.67-1.026,1.307-1.5,1.9a1.938,1.938,0,0,1-1.456-1.456c.6-.465,1.231-.965,1.9-1.49Zm-2.52,2.884a3.089,3.089,0,0,0,.688.687C53.3,53.364,51.128,55.5,48.61,57.9l-.734-.734c2.392-2.517,4.532-4.686,7.176-7.13Z" transform="translate(-44.196 -38.627)" fill="#6e6eaf"/>
        <path id="Контур_52" data-name="Контур 52" d="M35.251,11.984C34.3,9.68,32.3,8.071,30.4,8.071a3.04,3.04,0,0,0-1.056.184h-.009a3.191,3.191,0,0,1-.909.236,2.987,2.987,0,0,1,.616-.593l.223-.181c.4-.324.9-.727,1.917-1.563A3.23,3.23,0,0,0,32.59,3.11,3.091,3.091,0,0,0,30.827.591,6.882,6.882,0,0,0,27.756,0a18.149,18.149,0,0,0-3.839.475L23.808.5a25.536,25.536,0,0,0-6.634,2.432A18.883,18.883,0,0,0,9.037,11.27C7.2,15.018,6.582,18.51,7.212,21.648a11.343,11.343,0,0,0,3.1,5.809c1.34,1.339,4.37,2.239,7.54,2.239a14.718,14.718,0,0,0,3.835-.484,25.5,25.5,0,0,0,9.9-5.3C37.078,18.418,35.979,13.74,35.251,11.984Zm-4.485,11.1a24.583,24.583,0,0,1-9.382,5,13.558,13.558,0,0,1-3.533.444c-2.793,0-5.619-.8-6.72-1.9-2.091-2.091-5.009-6.8-1.054-14.855C11.835,8.2,15.688,3.54,24.066,1.63l.11-.025a16.961,16.961,0,0,1,3.579-.445c2.3,0,3.54.707,3.683,2.1l.014.081c.017.09.149.974-1,1.919-1.019.834-1.515,1.236-1.913,1.56l-.2.164c-.92.7-1.317,1.411-1.119,2a1.068,1.068,0,0,0,1.136.676h0a4.013,4.013,0,0,0,1.4-.316,1.885,1.885,0,0,1,.65-.111c1.22,0,2.911,1.1,3.78,3.2.637,1.536,1.582,5.659-3.414,10.656Z" transform="translate(-6.973 0.005)" fill="#6e6eaf"/>
        <path id="Контур_53" data-name="Контур 53" d="M82.559,92.453a.58.58,0,0,0,.786-.235,15.4,15.4,0,0,1,6.356-6.27.58.58,0,1,0-.553-1.02,16.492,16.492,0,0,0-6.824,6.74A.581.581,0,0,0,82.559,92.453Z" transform="translate(-77.888 -79.93)" fill="#6e6eaf"/>
        <path id="Контур_54" data-name="Контур 54" d="M65.846,234.426a.58.58,0,1,0-.327-.752h0a.579.579,0,0,0,.327.751Z" transform="translate(-62.087 -219.77)" fill="#6e6eaf"/>
        <path id="Контур_55" data-name="Контур 55" d="M78.467,413.18a4.955,4.955,0,0,1-.628-.294,1.587,1.587,0,0,1-.316-.222,7.808,7.808,0,0,1-.767-.891.58.58,0,1,0-.933.689,9.009,9.009,0,0,0,.879,1.023,2.634,2.634,0,0,0,.561.409,6.057,6.057,0,0,0,.778.366.58.58,0,1,0,.425-1.079Z" transform="translate(-71.724 -387.663)" fill="#6e6eaf"/>
        <path id="Контур_56" data-name="Контур 56" d="M57.828,376.864h0a.58.58,0,0,0-1.086.406h0a.58.58,0,1,0,1.086-.407Z" transform="translate(-53.821 -354.646)" fill="#6e6eaf"/>
        <path id="Контур_57" data-name="Контур 57" d="M155.34,406.911h-.057a2.03,2.03,0,1,0-.06,4.059h.062a2.03,2.03,0,1,0,.054-4.059Zm-.054,2.9h-.026a.87.87,0,1,1,.023-1.74h.025a.87.87,0,1,1-.022,1.74Z" transform="translate(-144.771 -383.304)" fill="#6e6eaf"/>
        <path id="Контур_58" data-name="Контур 58" d="M270.524,377.924h-.057a2.03,2.03,0,1,0-.06,4.059h.062a2.03,2.03,0,1,0,.054-4.059Zm-.054,2.9h-.026a.87.87,0,0,1,.023-1.74h.025a.87.87,0,1,1-.022,1.74Z" transform="translate(-253.274 -355.998)" fill="#6e6eaf"/>
        <path id="Контур_59" data-name="Контур 59" d="M368.1,308.468a2.03,2.03,0,1,0,.287,2.857,2.03,2.03,0,0,0-.287-2.857Zm-.611,2.123a.869.869,0,0,1-.675.319.858.858,0,0,1-.55-.2.87.87,0,0,1,.552-1.543.86.86,0,0,1,.55.2.872.872,0,0,1,.12,1.223Z" transform="translate(-344.031 -290.14)" fill="#6e6eaf"/>
        <path id="Контур_60" data-name="Контур 60" d="M396.626,197.794a2.031,2.031,0,1,0,1.869,1.235A2.031,2.031,0,0,0,396.626,197.794Zm.808,2.355a.871.871,0,1,1-.007-.665.871.871,0,0,1,.007.665Z" transform="translate(-372.115 -186.317)" fill="#6e6eaf"/>
        <path id="Контур_61" data-name="Контур 61" d="M299.757,178.735a2.024,2.024,0,1,0,.647,1.414,2.03,2.03,0,0,0-.647-1.414Zm-.745,2.079a.87.87,0,1,1-.045-1.229.87.87,0,0,1,.045,1.229Z" transform="translate(-279.564 -167.852)" fill="#6e6eaf"/>
        <path id="Контур_62" data-name="Контур 62" d="M197.612,262.018a.58.58,0,0,0-.477.25,6.832,6.832,0,0,0-1.263,2.65,1.74,1.74,0,0,0,3.48,0,6.833,6.833,0,0,0-1.263-2.65.58.58,0,0,0-.477-.25Zm0,3.48a.581.581,0,0,1-.58-.579,4.333,4.333,0,0,1,.58-1.245,4.336,4.336,0,0,1,.58,1.245.581.581,0,0,1-.58.581Z" transform="translate(-184.917 -246.816)" fill="#6e6eaf"/>
      </g>
    </g>
  </g>
</svg>
