<svg id="printing" xmlns="http://www.w3.org/2000/svg" width="31.034" height="31.031" viewBox="0 0 31.034 31.031">
  <path id="Контур_75" data-name="Контур 75" d="M31.534,17.018a.5.5,0,0,0,.5-.5V8.508a.5.5,0,0,0-.5-.5h-.5V4.5a.5.5,0,0,0-.5-.5h-2.5V1.5a.5.5,0,0,0-.5-.5H5.505a.5.5,0,0,0-.5.5V4H2.5a.5.5,0,0,0-.5.5V8H1.5a.5.5,0,0,0-.5.5v8.009a.5.5,0,0,0,.5.5H2V29.031H1.5a.5.5,0,0,0-.5.5v2a.5.5,0,0,0,.5.5H6.506a.5.5,0,0,0,.5-.5v-2a.5.5,0,0,0-.5-.5h-.5V17.018h1V27.53a.5.5,0,0,0,.5.5h18.02a.5.5,0,0,0,.5-.5V17.018h1V29.031h-.5a.5.5,0,0,0-.5.5v2a.5.5,0,0,0,.5.5h5.006a.5.5,0,0,0,.5-.5v-2a.5.5,0,0,0-.5-.5h-.5V17.018ZM6.006,2H27.029V6H6.006ZM3,5H5V6.5a.5.5,0,0,0,.5.5H27.53a.5.5,0,0,0,.5-.5V5h2V8H3ZM2,9H31.034v7.008h-3v-3.5a.5.5,0,0,0-.5-.5H5.505a.5.5,0,0,0-.5.5v3.5H2ZM6,31.025H2v-1H6Zm-1-2H3V17.018H5ZM6,16.01v-3H7v3ZM8,27.022V13.013H25.027V27.029ZM26.02,13.006h1v3h-1Zm5.006,18.02h-4v-1h4Zm-1-2h-2V17.018h2Z" transform="translate(-1 -1)" fill="#6e6eaf"/>
  <path id="Контур_76" data-name="Контур 76" d="M31.516,27H17.5a.5.5,0,0,0-.5.5v5.006a.5.5,0,0,0,.5.5H31.516a.5.5,0,0,0,.5-.5V27.5A.5.5,0,0,0,31.516,27Zm-.5,5.006H18V28H31.016Z" transform="translate(-8.991 -13.985)" fill="#6e6eaf"/>
  <path id="Контур_77" data-name="Контур 77" d="M17,41H32.017v1H17Z" transform="translate(-8.991 -20.978)" fill="#6e6eaf"/>
  <path id="Контур_78" data-name="Контур 78" d="M17,45H32.017v1H17Z" transform="translate(-8.991 -22.975)" fill="#6e6eaf"/>
  <path id="Контур_79" data-name="Контур 79" d="M17,49H32.017v1H17Z" transform="translate(-8.991 -24.973)" fill="#6e6eaf"/>
  <path id="Контур_80" data-name="Контур 80" d="M5,19H6v1H5Z" transform="translate(-2.998 -9.99)" fill="#6e6eaf"/>
  <path id="Контур_81" data-name="Контур 81" d="M57,19h1v1H57Z" transform="translate(-28.969 -9.99)" fill="#6e6eaf"/>
  <path id="Контур_82" data-name="Контур 82" d="M9,19h1v1H9Z" transform="translate(-4.996 -9.99)" fill="#6e6eaf"/>
</svg>
