<svg xmlns="http://www.w3.org/2000/svg" width="30.534" height="30.532" viewBox="0 0 30.534 30.532">
  <path id="Контур_83" data-name="Контур 83" d="M30.528,15.221a.453.453,0,0,0-.129-.272L23.421,7.97a.448.448,0,1,0-.634.634l6.17,6.17a14.262,14.262,0,0,1-9.035-4.165,14.262,14.262,0,0,1-4.165-9.035L21.52,7.336a.448.448,0,1,0,.634-.634L15.582.131A.449.449,0,0,0,15.265,0a15.267,15.267,0,1,0,6.516,29.075.448.448,0,1,0-.383-.81A14.372,14.372,0,1,1,14.825.9,15.43,15.43,0,0,0,15,2.832a12.384,12.384,0,0,0-6.5,2,.448.448,0,0,0-.132.62.46.46,0,0,0,.62.132A11.494,11.494,0,0,1,15.17,3.729a15.161,15.161,0,0,0,4.119,7.516q.227.227.461.442L18.5,11.5a.788.788,0,0,1-.594-.431L16.776,8.78a1.685,1.685,0,0,0-3.021,0l-1.13,2.289a.788.788,0,0,1-.594.431l-2.526.367a1.685,1.685,0,0,0-.934,2.873L10.4,16.525a.789.789,0,0,1,.227.7l-.432,2.516a1.685,1.685,0,0,0,2.444,1.776L14.9,20.326a.788.788,0,0,1,.734,0l2.259,1.188a1.685,1.685,0,0,0,2.444-1.776L19.9,17.222a.789.789,0,0,1,.227-.7l1.828-1.782a1.676,1.676,0,0,0,.5-1.061,15.087,15.087,0,0,0,4.342,1.68A11.54,11.54,0,1,1,7.614,6.626a.448.448,0,0,0-.594-.671A12.436,12.436,0,1,0,27.7,15.528a15.421,15.421,0,0,0,1.929.178,14.356,14.356,0,0,1-6.706,11.721.448.448,0,0,0-.14.618.462.462,0,0,0,.618.14,15.255,15.255,0,0,0,7.131-12.92.446.446,0,0,0,0-.045Zm-9-1.928a.774.774,0,0,1-.2.808L19.5,15.883a1.684,1.684,0,0,0-.484,1.491l.432,2.516a.788.788,0,0,1-1.144.831l-2.259-1.188a1.684,1.684,0,0,0-1.568,0l-2.259,1.188a.788.788,0,0,1-1.144-.831l.432-2.516a1.684,1.684,0,0,0-.484-1.491L9.2,14.1a.788.788,0,0,1,.437-1.345l2.526-.367a1.684,1.684,0,0,0,1.268-.922l1.13-2.289a.788.788,0,0,1,1.414,0l1.13,2.289a1.684,1.684,0,0,0,1.268.922l2.526.367a.812.812,0,0,1,.636.536Z" transform="translate(0.002)" fill="#6e6eaf"/>
</svg>
