<svg xmlns="http://www.w3.org/2000/svg" width="13.733" height="13.729" viewBox="0 0 13.733 13.729">
  <g id="whatsapp" transform="translate(0 0)">
    <path id="Контур_39" data-name="Контур 39" d="M6.867,0h0A6.861,6.861,0,0,0,1.307,10.89L.452,13.44,3.091,12.6A6.864,6.864,0,1,0,6.867,0Z" transform="translate(0 0)" fill="#4caf50"/>
    <path id="Контур_40" data-name="Контур 40" d="M115.247,123.646a1.937,1.937,0,0,1-1.35.969c-.359.076-.827.135-2.4-.517a8.6,8.6,0,0,1-3.418-3.019,3.921,3.921,0,0,1-.816-2.071,2.192,2.192,0,0,1,.7-1.671,1,1,0,0,1,.7-.246c.085,0,.161,0,.23.007.2.009.3.021.436.338.165.4.569,1.384.617,1.485a.408.408,0,0,1,.029.371,1.186,1.186,0,0,1-.222.315c-.1.117-.2.206-.3.331-.092.109-.2.226-.08.427a6.1,6.1,0,0,0,1.114,1.384,5.048,5.048,0,0,0,1.61.993.434.434,0,0,0,.484-.076,8.306,8.306,0,0,0,.536-.71.384.384,0,0,1,.493-.149c.186.068,1.166.549,1.368.65s.338.149.383.234a1.71,1.71,0,0,1-.115.955Z" transform="translate(-104.385 -113.948)" fill="#fafafa"/>
  </g>
</svg>
